<svg width="22" height="22" viewBox="0 0 22 22" fill="none" xmlns="http://www.w3.org/2000/svg">
<path d="M20.1409 16.5312C19.3965 15.7812 17.5937 14.6867 16.719 14.2456C15.58 13.6718 15.4862 13.6249 14.5909 14.2901C13.9937 14.734 13.5967 15.1306 12.8978 14.9815C12.1989 14.8324 10.6801 13.992 9.35027 12.6663C8.02042 11.3407 7.13121 9.77791 6.98167 9.08135C6.83214 8.38478 7.23527 7.99244 7.67496 7.39385C8.29464 6.5501 8.24777 6.40947 7.71808 5.27041C7.30511 4.38447 6.17871 2.59853 5.42589 1.85791C4.62058 1.06244 4.62058 1.20306 4.10167 1.41869C3.67922 1.59643 3.27394 1.81249 2.89089 2.06416C2.14089 2.56244 1.72464 2.97635 1.43355 3.59838C1.14246 4.22041 1.01167 5.67869 2.51496 8.40963C4.01824 11.1406 5.07292 12.537 7.25589 14.7138C9.43886 16.8907 11.1175 18.0612 13.5714 19.4374C16.607 21.1376 17.7714 20.8062 18.3953 20.5156C19.0192 20.2249 19.435 19.8124 19.9342 19.0624C20.1865 18.68 20.403 18.2752 20.5811 17.8531C20.7971 17.336 20.9378 17.336 20.1409 16.5312Z" stroke="black" stroke-width="1.5" stroke-miterlimit="10"/>
</svg>
