<svg width="22" height="22" viewBox="0 0 22 22" fill="none" xmlns="http://www.w3.org/2000/svg">
<path d="M19.2027 14.0281C19.1559 13.8594 19.259 13.625 19.3574 13.4562C19.3875 13.406 19.4204 13.3575 19.4559 13.3109C20.2979 12.0598 20.7482 10.5862 20.7496 9.07812C20.7637 4.75625 17.1168 1.25 12.6074 1.25C8.67461 1.25 5.39336 3.92656 4.62461 7.47969C4.5096 8.00632 4.45146 8.54377 4.45117 9.08281C4.45117 13.4094 7.95742 17.0094 12.4668 17.0094C13.184 17.0094 14.1496 16.7937 14.6793 16.6484C15.209 16.5031 15.734 16.3109 15.8699 16.2594C16.0093 16.2068 16.1569 16.1798 16.3059 16.1797C16.4683 16.1791 16.6293 16.2109 16.7793 16.2734L19.4371 17.2156C19.4954 17.2403 19.557 17.2561 19.6199 17.2625C19.7194 17.2625 19.8148 17.223 19.8851 17.1527C19.9554 17.0823 19.9949 16.987 19.9949 16.8875C19.9916 16.8446 19.9838 16.8022 19.9715 16.7609L19.2027 14.0281Z" stroke="black" stroke-width="1.5" stroke-miterlimit="10" stroke-linecap="round"/>
<path d="M2.11534 9.875C1.50054 10.9795 1.20314 12.2325 1.256 13.4954C1.30886 14.7584 1.70993 15.9822 2.41487 17.0314C2.52315 17.195 2.58409 17.3216 2.56534 17.4064C2.54659 17.4913 2.00612 20.3066 2.00612 20.3066C1.99312 20.3724 1.99805 20.4406 2.0204 20.5039C2.04274 20.5673 2.08169 20.6234 2.13315 20.6666C2.20183 20.7213 2.28722 20.7507 2.37503 20.75C2.42195 20.7501 2.46839 20.7406 2.51143 20.7219L5.14628 19.6906C5.32762 19.6191 5.52992 19.6225 5.70878 19.7C6.59659 20.0459 7.57815 20.2625 8.56018 20.2625C9.87797 20.2639 11.1726 19.9163 12.3125 19.2552" stroke="black" stroke-width="1.5" stroke-miterlimit="10" stroke-linecap="round"/>
</svg>
