<svg width="22" height="19" viewBox="0 0 22 19" fill="none" xmlns="http://www.w3.org/2000/svg">
<path d="M2.20631 7C1.95424 6.99974 1.71228 7.09912 1.53316 7.27649C1.35404 7.45385 1.25228 7.69481 1.25006 7.94688C1.24904 8.03424 1.26169 8.12123 1.28756 8.20469L3.71099 16.75C3.82332 17.1492 4.06336 17.5005 4.39438 17.7503C4.7254 18 5.12915 18.1344 5.54381 18.1328H16.4563C16.8718 18.1332 17.2761 17.9985 17.6084 17.7491C17.9406 17.4997 18.1828 17.149 18.2985 16.75L20.7219 8.20469L20.7501 7.94688C20.7478 7.69481 20.6461 7.45385 20.467 7.27649C20.2878 7.09912 20.0459 6.99974 19.7938 7H2.20631ZM11.2682 14.5033C10.8786 14.5013 10.4983 14.384 10.1753 14.1662C9.85227 13.9483 9.60105 13.6396 9.4533 13.2791C9.30555 12.9186 9.2679 12.5224 9.34509 12.1405C9.42229 11.7586 9.61088 11.4082 9.88706 11.1334C10.1632 10.8586 10.5146 10.6717 10.8969 10.5964C11.2792 10.5211 11.6752 10.5607 12.0349 10.7103C12.3947 10.8598 12.7021 11.1126 12.9184 11.4367C13.1346 11.7608 13.2501 12.1416 13.2501 12.5313C13.2476 13.0552 13.0377 13.5569 12.6662 13.9264C12.2948 14.296 11.7921 14.5034 11.2682 14.5033V14.5033Z" stroke="black" stroke-width="1.5" stroke-linejoin="round"/>
<path d="M6.5 7L11 1L15.5 7" stroke="black" stroke-width="1.5" stroke-linejoin="round"/>
</svg>
