<svg width="16" height="24" viewBox="0 0 16 24" fill="none" xmlns="http://www.w3.org/2000/svg">
<path d="M10.25 18V16.875C10.25 15.5157 11.7285 14.2299 12.6875 13.3125C14.0394 12.0202 14.75 10.2839 14.75 8.25003C14.75 4.50003 11.7627 1.50003 8.00003 1.50003C7.11291 1.49755 6.23405 1.67046 5.41399 2.0088C4.59392 2.34714 3.84883 2.84425 3.22154 3.47154C2.59425 4.09883 2.09714 4.84392 1.7588 5.66399C1.42046 6.48405 1.24755 7.36291 1.25003 8.25003C1.25003 10.2113 1.99112 12.0652 3.31253 13.3125C4.26643 14.213 5.75003 15.5016 5.75003 16.875V18M6.50003 22.5H9.50003M5.75003 20.25H10.25M8.00003 18V12" stroke="black" stroke-width="1.5" stroke-linecap="round" stroke-linejoin="round"/>
<path d="M9.78125 11.25C9.78125 11.25 8.77297 12 8 12C7.22703 12 6.21875 11.25 6.21875 11.25" stroke="black" stroke-width="1.5" stroke-linecap="round" stroke-linejoin="round"/>
</svg>
