<svg width="20" height="23" viewBox="0 0 20 23" fill="none" xmlns="http://www.w3.org/2000/svg">
<path opacity="0.2" d="M13.4331 0.292643L10.0839 1.22264C10.0586 1.22951 10.0337 1.23781 10.0094 1.24749L13.4331 0.292643ZM13.4331 0.292643C13.7898 0.191862 14.0392 0.302018 14.1859 0.412643M13.4331 0.292643L14.1859 0.412643M14.1859 0.412643C14.2845 0.486929 14.3643 0.583306 14.4188 0.694027C14.4734 0.804747 14.5012 0.926722 14.5 1.05014V1.93702C14.5 2.41655 14.2848 2.88202 13.9375 3.15577L11.9664 4.77624L14.1859 0.412643ZM19.7266 6.99955L19.7266 8.26069C19.7231 8.43307 19.6808 8.60245 19.6029 8.75626C19.525 8.91015 19.4134 9.0445 19.2764 9.14934L19.2764 9.14933L19.2757 9.14986L12.1507 15.0116L12.1419 15.0188L12.1422 15.0303L12.2134 17.7383L12.2135 17.7389C12.2242 17.9364 12.228 18.4852 12.228 18.6123C12.2273 19.9055 12.0169 20.9354 11.633 21.6411C11.2496 22.3458 10.6941 22.7261 10 22.7261C9.78134 22.7261 9.46931 22.6824 9.14741 22.4926C8.82573 22.3028 8.4925 21.9662 8.23269 21.3774L8.23269 21.3774C7.92512 20.6816 7.76875 19.7515 7.76875 18.6114C7.76875 18.4856 7.77251 17.9383 7.78326 17.738L7.78327 17.7373L7.85546 15.0298L7.85577 15.0184L7.84694 15.0111L0.721952 9.13486L0.721323 9.13438C0.584948 9.02945 0.473894 8.89522 0.39637 8.7416C0.318874 8.58804 0.276861 8.41903 0.273438 8.24706V6.99952C0.273478 6.87806 0.303968 6.75855 0.36212 6.65192C0.420271 6.54528 0.504229 6.45492 0.606314 6.38911C0.708401 6.32329 0.825356 6.28412 0.946487 6.27518C1.06762 6.26623 1.18906 6.2878 1.29971 6.3379L7.96767 9.35946L7.99999 9.3741L8.00078 9.33863L8.10156 4.8016L8.10181 4.79024L8.09304 4.783L6.0882 3.12831L6.08787 3.12805C5.89045 2.971 5.75024 2.8317 5.65878 2.65352C5.56736 2.47543 5.52344 2.25608 5.52344 1.93702L5.52345 1.09702L5.52343 1.09626C5.51927 0.967032 5.54632 0.838702 5.6023 0.722148C5.65826 0.605622 5.74149 0.5043 5.84492 0.426765C5.99063 0.318737 6.23813 0.211641 6.59355 0.31607L6.59385 0.316155L9.9219 1.24519C9.92191 1.2452 9.92192 1.2452 9.92194 1.2452C9.94599 1.25201 9.97014 1.26021 9.99393 1.26936L9.99381 1.26968L9.99772 1.27046C10.0031 1.27155 10.0086 1.27155 10.014 1.27046L10.0141 1.27084L10.018 1.26927C10.0416 1.25991 10.0656 1.2519 10.09 1.24526L10.0902 1.24523L13.4394 0.315227L13.4395 0.315198C13.7879 0.216777 14.0298 0.324262 14.1718 0.431357L14.1718 0.43136C14.2675 0.503439 14.3449 0.596953 14.3978 0.704384C14.4507 0.811815 14.4777 0.930166 14.4766 1.04992V1.05014V1.93702C14.4766 2.41005 14.2642 2.86846 13.923 3.13736L13.923 3.13736L13.9226 3.13766L11.9515 4.75813L11.9428 4.7653L11.943 4.77658L12.0105 9.33846L12.011 9.37424L12.0436 9.35945L18.6998 6.33883C18.8104 6.28866 18.9318 6.26701 19.053 6.27586C19.1741 6.28472 19.2911 6.32379 19.3932 6.38951C19.4953 6.45523 19.5793 6.5455 19.6376 6.65207C19.6958 6.75864 19.7264 6.8781 19.7266 6.99955Z" fill="#112211" stroke="#112211" stroke-width="0.046875"/>
</svg>
