<svg width="216" height="49" viewBox="0 0 216 49" fill="none" xmlns="http://www.w3.org/2000/svg">
<path d="M0 0V49H2.0052V0H0ZM3.7227 0V49H4.20448V0H3.7227ZM4.88036 0V49H6.40474V0H4.88036ZM7.95352 0V49H8.60402V0H7.95352ZM10.3225 0V49H10.8033V0H10.3225ZM11.0101 0V49H13.0026V0H11.0101ZM14.1983 0V49H15.2019V0H14.1983ZM17.1788 0V49H17.4012V0H17.1788ZM18.9314 0V49H19.6014V0H18.9314ZM21.3189 0V49H21.8007V0H21.3189ZM22.0075 0V49H24V0H22.0075Z" fill="#112211"/>
<path d="M24 0V49H26.0052V0H24ZM27.7227 0V49H28.2045V0H27.7227ZM28.8804 0V49H30.4047V0H28.8804ZM31.9535 0V49H32.604V0H31.9535ZM34.3225 0V49H34.8033V0H34.3225ZM35.0101 0V49H37.0026V0H35.0101ZM38.1983 0V49H39.2019V0H38.1983ZM41.1788 0V49H41.4012V0H41.1788ZM42.9314 0V49H43.6014V0H42.9314ZM45.3189 0V49H45.8007V0H45.3189ZM46.0075 0V49H48V0H46.0075Z" fill="#112211"/>
<path d="M48 0V49H50.0052V0H48ZM51.7227 0V49H52.2045V0H51.7227ZM52.8804 0V49H54.4047V0H52.8804ZM55.9535 0V49H56.604V0H55.9535ZM58.3225 0V49H58.8033V0H58.3225ZM59.0101 0V49H61.0026V0H59.0101ZM62.1983 0V49H63.2019V0H62.1983ZM65.1788 0V49H65.4012V0H65.1788ZM66.9314 0V49H67.6014V0H66.9314ZM69.3189 0V49H69.8007V0H69.3189ZM70.0075 0V49H72V0H70.0075Z" fill="#112211"/>
<path d="M72 0V49H74.0052V0H72ZM75.7227 0V49H76.2045V0H75.7227ZM76.8804 0V49H78.4047V0H76.8804ZM79.9535 0V49H80.604V0H79.9535ZM82.3225 0V49H82.8033V0H82.3225ZM83.0101 0V49H85.0026V0H83.0101ZM86.1983 0V49H87.2019V0H86.1983ZM89.1788 0V49H89.4012V0H89.1788ZM90.9314 0V49H91.6014V0H90.9314ZM93.3189 0V49H93.8007V0H93.3189ZM94.0075 0V49H96V0H94.0075Z" fill="#112211"/>
<path d="M96 0V49H98.0052V0H96ZM99.7227 0V49H100.204V0H99.7227ZM100.88 0V49H102.405V0H100.88ZM103.954 0V49H104.604V0H103.954ZM106.323 0V49H106.803V0H106.323ZM107.01 0V49H109.003V0H107.01ZM110.198 0V49H111.202V0H110.198ZM113.179 0V49H113.401V0H113.179ZM114.931 0V49H115.601V0H114.931ZM117.319 0V49H117.801V0H117.319ZM118.007 0V49H120V0H118.007Z" fill="#112211"/>
<path d="M120 0V49H122.005V0H120ZM123.723 0V49H124.204V0H123.723ZM124.88 0V49H126.405V0H124.88ZM127.954 0V49H128.604V0H127.954ZM130.323 0V49H130.803V0H130.323ZM131.01 0V49H133.003V0H131.01ZM134.198 0V49H135.202V0H134.198ZM137.179 0V49H137.401V0H137.179ZM138.931 0V49H139.601V0H138.931ZM141.319 0V49H141.801V0H141.319ZM142.007 0V49H144V0H142.007Z" fill="#112211"/>
<path d="M144 0V49H146.005V0H144ZM147.723 0V49H148.204V0H147.723ZM148.88 0V49H150.405V0H148.88ZM151.954 0V49H152.604V0H151.954ZM154.323 0V49H154.803V0H154.323ZM155.01 0V49H157.003V0H155.01ZM158.198 0V49H159.202V0H158.198ZM161.179 0V49H161.401V0H161.179ZM162.931 0V49H163.601V0H162.931ZM165.319 0V49H165.801V0H165.319ZM166.007 0V49H168V0H166.007Z" fill="#112211"/>
<path d="M168 0V49H170.005V0H168ZM171.723 0V49H172.204V0H171.723ZM172.88 0V49H174.405V0H172.88ZM175.954 0V49H176.604V0H175.954ZM178.323 0V49H178.803V0H178.323ZM179.01 0V49H181.003V0H179.01ZM182.198 0V49H183.202V0H182.198ZM185.179 0V49H185.401V0H185.179ZM186.931 0V49H187.601V0H186.931ZM189.319 0V49H189.801V0H189.319ZM190.007 0V49H192V0H190.007Z" fill="#112211"/>
<path d="M192 0V49H194.005V0H192ZM195.723 0V49H196.204V0H195.723ZM196.88 0V49H198.405V0H196.88ZM199.954 0V49H200.604V0H199.954ZM202.323 0V49H202.803V0H202.323ZM203.01 0V49H205.003V0H203.01ZM206.198 0V49H207.202V0H206.198ZM209.179 0V49H209.401V0H209.179ZM210.931 0V49H211.601V0H210.931ZM213.319 0V49H213.801V0H213.319ZM214.007 0V49H216V0H214.007Z" fill="#112211"/>
</svg>
