<svg width="20" height="20" viewBox="0 0 20 20" fill="none" xmlns="http://www.w3.org/2000/svg">
<path d="M19 10C19 5.03125 14.9688 1 10 1C5.03125 1 1 5.03125 1 10C1 14.9688 5.03125 19 10 19C14.9688 19 19 14.9688 19 10Z" stroke="black" stroke-width="1.5" stroke-miterlimit="10"/>
<path d="M9.73075 5.78358L9.99981 11.5L10.2684 5.78358C10.2701 5.74704 10.2642 5.71054 10.2513 5.67632C10.2384 5.6421 10.2186 5.61087 10.1932 5.58454C10.1678 5.55822 10.1373 5.53735 10.1036 5.52322C10.0698 5.50908 10.0336 5.50198 9.997 5.50233V5.50233C9.96085 5.50267 9.92514 5.51029 9.89201 5.52474C9.85887 5.53918 9.82899 5.56016 9.80414 5.58641C9.77929 5.61266 9.75998 5.64365 9.74737 5.67752C9.73476 5.7114 9.72911 5.74747 9.73075 5.78358V5.78358Z" stroke="black" stroke-width="1.5" stroke-linecap="round" stroke-linejoin="round"/>
<path d="M10 15.2457C9.81458 15.2457 9.63332 15.1907 9.47915 15.0877C9.32498 14.9847 9.20482 14.8383 9.13386 14.667C9.06291 14.4957 9.04434 14.3072 9.08051 14.1253C9.11669 13.9435 9.20598 13.7764 9.33709 13.6453C9.4682 13.5142 9.63525 13.4249 9.8171 13.3887C9.99896 13.3526 10.1875 13.3711 10.3588 13.4421C10.5301 13.513 10.6765 13.6332 10.7795 13.7874C10.8825 13.9416 10.9375 14.1228 10.9375 14.3082C10.9375 14.5569 10.8387 14.7953 10.6629 14.9711C10.4871 15.147 10.2486 15.2457 10 15.2457Z" fill="black"/>
</svg>
