<svg width="22" height="18" viewBox="0 0 22 18" fill="none" xmlns="http://www.w3.org/2000/svg">
<path d="M18.5 0.75H3.5C2.25736 0.75 1.25 1.75736 1.25 3V15C1.25 16.2426 2.25736 17.25 3.5 17.25H18.5C19.7426 17.25 20.75 16.2426 20.75 15V3C20.75 1.75736 19.7426 0.75 18.5 0.75Z" stroke="black" stroke-width="1.5" stroke-linejoin="round"/>
<path d="M14.75 6.75C15.5784 6.75 16.25 6.07843 16.25 5.25C16.25 4.42157 15.5784 3.75 14.75 3.75C13.9216 3.75 13.25 4.42157 13.25 5.25C13.25 6.07843 13.9216 6.75 14.75 6.75Z" stroke="black" stroke-width="1.5" stroke-miterlimit="10"/>
<path d="M13.25 12.7401L9.00031 8.49842C8.72989 8.22806 8.36642 8.07119 7.9842 8.05986C7.60198 8.04854 7.22986 8.18361 6.94391 8.43749L1.25 13.5M9.5 17.25L15.2816 11.4684C15.546 11.2035 15.8999 11.047 16.2738 11.0296C16.6477 11.0123 17.0145 11.1354 17.3023 11.3747L20.75 14.25" stroke="black" stroke-width="1.5" stroke-linecap="round" stroke-linejoin="round"/>
</svg>
