<svg width="24" height="22" viewBox="0 0 24 22" fill="none" xmlns="http://www.w3.org/2000/svg">
<path d="M18.202 11.75C20.4403 11.75 22.41 10.4483 23.25 8.51938C22.5839 8.80906 21.8016 8.92297 21.0291 8.92297C19.5831 8.92297 18.1964 8.34856 17.1739 7.32611C16.1514 6.30365 15.577 4.91691 15.577 3.47094C15.577 2.69844 15.6909 1.91609 15.9806 1.25C14.0517 2.09 12.75 4.05969 12.75 6.29797C12.7496 6.74321 12.8038 7.18683 12.9113 7.61891" stroke="black" stroke-width="1.5" stroke-linecap="round" stroke-linejoin="round"/>
<path d="M4.24734 13.3836C4.40401 13.3593 4.54902 13.2862 4.66172 13.1747C4.77442 13.0631 4.84905 12.9189 4.875 12.7625C5.44172 9.32047 7.95141 7.25 10.875 7.25C13.5905 7.25 15.4041 9.01953 16.1344 10.8941C16.1813 11.0142 16.2587 11.1201 16.359 11.2012C16.4593 11.2823 16.579 11.3359 16.7062 11.3567C19.05 11.7387 21 13.3039 21 16.025C21 18.8094 18.7219 20.75 15.9375 20.75H4.96875C2.64844 20.75 0.75 19.5922 0.75 17.0375C0.75 14.7655 2.56266 13.6522 4.24734 13.3836V13.3836Z" stroke="black" stroke-width="1.5" stroke-linejoin="round"/>
</svg>
