<svg width="22" height="22" viewBox="0 0 22 22" fill="none" xmlns="http://www.w3.org/2000/svg">
<path d="M11 20.75C16.3848 20.75 20.75 16.3848 20.75 11C20.75 5.61522 16.3848 1.25 11 1.25C5.61522 1.25 1.25 5.61522 1.25 11C1.25 16.3848 5.61522 20.75 11 20.75Z" stroke="black" stroke-width="1.5" stroke-linecap="round" stroke-linejoin="round"/>
<path d="M20.6293 11.7238C20.3907 11.7411 20.2431 11.75 19.9998 11.75C14.6148 11.75 10.2498 7.385 10.2498 2C10.2498 1.74828 10.2592 1.59266 10.2779 1.34375M1.32715 10.2762C1.32715 10.2762 1.75793 10.25 1.9998 10.25C7.3848 10.25 11.7498 14.615 11.7498 20C11.7498 20.2522 11.7212 20.6562 11.7212 20.6562" stroke="black" stroke-width="1.5" stroke-linecap="round" stroke-linejoin="round"/>
</svg>
