<svg width="18" height="22" viewBox="0 0 18 22" fill="none" xmlns="http://www.w3.org/2000/svg">
<path d="M0.75 20.75V2.19406C0.750232 2.12846 0.767668 2.06407 0.80057 2.00731C0.833472 1.95056 0.880686 1.90343 0.9375 1.87063C1.30359 1.65594 2.29312 1.25 4.5 1.25C7.5 1.25 11.2969 3.5 13.5 3.5C14.7439 3.49677 15.9746 3.24546 17.1202 2.76078C17.1344 2.75483 17.1499 2.7525 17.1653 2.75399C17.1807 2.75549 17.1955 2.76076 17.2083 2.76934C17.2212 2.77793 17.2317 2.78955 17.239 2.80319C17.2462 2.81682 17.25 2.83205 17.25 2.8475V13.13C17.2499 13.1663 17.2393 13.2018 17.2194 13.2322C17.1995 13.2625 17.1712 13.2865 17.138 13.3011C16.7517 13.4703 15.3905 14 13.5 14C11.25 14 7.5 12.5 4.5 12.5C1.5 12.5 0.75 13.25 0.75 13.25" stroke="black" stroke-width="1.5" stroke-miterlimit="10" stroke-linecap="round"/>
</svg>
