<svg width="22" height="22" viewBox="0 0 22 22" fill="none" xmlns="http://www.w3.org/2000/svg">
<path d="M11.3052 8.57275L2.28125 17.5948C1.69813 18.1788 1.25 20.7499 1.25 20.7499C1.25 20.7499 3.79906 20.3238 4.40516 19.7187L13.4281 10.6957" stroke="black" stroke-width="1.5" stroke-linecap="round" stroke-linejoin="round"/>
<path d="M16.612 9.63394L12.3663 5.38831C11.78 4.80198 10.8294 4.8019 10.2432 5.38815C9.65695 5.97439 9.65703 6.92496 10.2434 7.51129L14.489 11.7569C15.0753 12.3433 16.0259 12.3433 16.6121 11.7571C17.1984 11.1708 17.1983 10.2203 16.612 9.63394Z" stroke="black" stroke-width="1.5" stroke-linecap="round" stroke-linejoin="round"/>
<path d="M12.5898 5.60932C12.5898 5.60932 13.554 6.01104 14.3345 5.23057L16.8971 1.91979C17.7643 1.00994 19.2062 1.04369 20.0818 1.91979C20.9574 2.79541 20.9884 4.20775 20.0818 5.104L16.7687 7.66666C16.0351 8.40025 16.3899 9.41135 16.3899 9.41135M4.40542 19.7187C4.40542 19.7187 3.16417 20.5315 2.31667 19.6845C1.46917 18.8374 2.28151 17.5948 2.28151 17.5948" stroke="black" stroke-width="1.5" stroke-linecap="round" stroke-linejoin="round"/>
</svg>
