<svg width="22" height="22" viewBox="0 0 22 22" fill="none" xmlns="http://www.w3.org/2000/svg">
<path d="M11.2945 8.01453C10.679 7.95374 10.0597 8.08469 9.52151 8.38945C8.98329 8.69421 8.55241 9.15788 8.28789 9.71698C8.02336 10.2761 7.93811 10.9033 8.04382 11.5127C8.14952 12.1221 8.441 12.684 8.87836 13.1213C9.31572 13.5587 9.87758 13.8502 10.487 13.9559C11.0964 14.0616 11.7236 13.9763 12.2827 13.7118C12.8418 13.4473 13.3055 13.0164 13.6102 12.4782C13.915 11.94 14.0459 11.3207 13.9852 10.7052C13.9159 10.0151 13.6101 9.37031 13.1197 8.87995C12.6294 8.38958 11.9845 8.08384 11.2945 8.01453V8.01453ZM18.518 11C18.5161 11.3261 18.4921 11.6517 18.4463 11.9745L20.5655 13.6367C20.6578 13.7132 20.7199 13.8199 20.741 13.9379C20.762 14.056 20.7405 14.1776 20.6803 14.2812L18.6755 17.75C18.6146 17.8527 18.5194 17.9305 18.4067 17.9699C18.2941 18.0093 18.1711 18.0076 18.0595 17.9652L15.9548 17.1177C15.8388 17.0714 15.7131 17.0547 15.589 17.0691C15.4649 17.0834 15.3462 17.1283 15.2438 17.1997C14.9225 17.4209 14.585 17.6174 14.2341 17.7875C14.1237 17.8411 14.0283 17.9211 13.9562 18.0203C13.8841 18.1196 13.8375 18.2351 13.8206 18.3566L13.5052 20.6014C13.4844 20.72 13.4232 20.8276 13.3319 20.906C13.2406 20.9844 13.1249 21.0287 13.0045 21.0312H8.99485C8.87651 21.0292 8.76239 20.9869 8.67131 20.9113C8.58022 20.8357 8.5176 20.7314 8.49375 20.6155L8.17875 18.3739C8.16106 18.2511 8.1133 18.1345 8.0397 18.0346C7.9661 17.9346 7.86894 17.8544 7.75688 17.8011C7.40635 17.6319 7.06996 17.4349 6.75094 17.2119C6.6488 17.1408 6.53058 17.0963 6.40693 17.0823C6.28329 17.0683 6.1581 17.0853 6.04266 17.1317L3.93844 17.9788C3.82693 18.0212 3.70401 18.023 3.59133 17.9837C3.47866 17.9444 3.38346 17.8666 3.3225 17.7641L1.31766 14.2953C1.25738 14.1917 1.23584 14.07 1.25687 13.952C1.27791 13.834 1.34014 13.7272 1.4325 13.6508L3.2236 12.2445C3.32172 12.1666 3.39884 12.0655 3.44796 11.9502C3.49707 11.835 3.51663 11.7093 3.50485 11.5845C3.48797 11.3891 3.47766 11.1941 3.47766 10.9986C3.47766 10.8031 3.4875 10.6109 3.50485 10.4197C3.51534 10.2957 3.49483 10.1711 3.44516 10.057C3.39549 9.94294 3.31822 9.84302 3.22031 9.76625L1.43016 8.36C1.3393 8.28317 1.27837 8.17681 1.25806 8.05957C1.23775 7.94232 1.25934 7.82167 1.31906 7.71875L3.32391 4.25C3.38479 4.14734 3.47996 4.06946 3.59264 4.0301C3.70532 3.99074 3.82828 3.99242 3.93985 4.03484L6.04453 4.88234C6.1606 4.92856 6.28631 4.94525 6.41042 4.93094C6.53452 4.91662 6.65313 4.87174 6.75563 4.80031C7.07684 4.57912 7.41437 4.38262 7.76532 4.2125C7.87565 4.15887 7.97108 4.07891 8.04318 3.97966C8.11529 3.88042 8.16185 3.76494 8.17875 3.64344L8.49422 1.39859C8.51494 1.28004 8.57619 1.17236 8.6675 1.09396C8.75881 1.01555 8.87452 0.971298 8.99485 0.96875H13.0045C13.1229 0.970797 13.237 1.01309 13.3281 1.08867C13.4192 1.16425 13.4818 1.2686 13.5056 1.38453L13.8206 3.62609C13.8383 3.74894 13.8861 3.86551 13.9597 3.96544C14.0333 4.06537 14.1304 4.14557 14.2425 4.19891C14.593 4.3681 14.9294 4.56514 15.2484 4.78813C15.3506 4.85919 15.4688 4.90373 15.5925 4.91772C15.7161 4.93172 15.8413 4.91473 15.9567 4.86828L18.0609 4.02125C18.1725 3.97879 18.2954 3.97704 18.408 4.01631C18.5207 4.05558 18.6159 4.13336 18.6769 4.23594L20.6817 7.70469C20.742 7.80832 20.7635 7.92999 20.7425 8.04802C20.7215 8.16604 20.6592 8.27278 20.5669 8.34922L18.7758 9.75547C18.6772 9.83311 18.5997 9.93416 18.5501 10.0494C18.5006 10.1647 18.4807 10.2905 18.4922 10.4155C18.5077 10.6095 18.518 10.8045 18.518 11Z" stroke="black" stroke-width="1.5" stroke-linecap="round" stroke-linejoin="round"/>
</svg>
