<svg width="24" height="20" viewBox="0 0 24 20" fill="none" xmlns="http://www.w3.org/2000/svg">
<path d="M20.25 4.75L18.9061 17.6753C18.8631 18.0403 18.6877 18.3767 18.4131 18.6209C18.1385 18.8651 17.7839 19 17.4164 19H6.58406C6.2166 19 5.86193 18.8651 5.58733 18.6209C5.31273 18.3767 5.13732 18.0403 5.09438 17.6753L3.75 4.75" stroke="black" stroke-width="1.5" stroke-linecap="round" stroke-linejoin="round"/>
<path d="M21.75 1H2.25C1.83579 1 1.5 1.33579 1.5 1.75V4C1.5 4.41421 1.83579 4.75 2.25 4.75H21.75C22.1642 4.75 22.5 4.41421 22.5 4V1.75C22.5 1.33579 22.1642 1 21.75 1Z" stroke="black" stroke-width="1.5" stroke-linecap="round" stroke-linejoin="round"/>
<path d="M14.625 9.25L9.375 14.5M14.625 14.5L9.375 9.25" stroke="black" stroke-width="1.5" stroke-linecap="round" stroke-linejoin="round"/>
</svg>
