<svg width="22" height="14" viewBox="0 0 22 14" fill="none" xmlns="http://www.w3.org/2000/svg">
<path d="M14.2501 0.204103C13.1126 0.203381 11.9938 0.493575 11.0001 1.0471C10.0064 0.493575 8.88759 0.203381 7.7501 0.204103C5.94769 0.204103 4.2191 0.920108 2.9446 2.19461C1.67011 3.4691 0.954102 5.19769 0.954102 7.0001C0.954102 8.80251 1.67011 10.5311 2.9446 11.8056C4.2191 13.0801 5.94769 13.7961 7.7501 13.7961C8.88759 13.7968 10.0064 13.5066 11.0001 12.9531C11.9938 13.5066 13.1126 13.7968 14.2501 13.7961C16.0525 13.7961 17.7811 13.0801 19.0556 11.8056C20.3301 10.5311 21.0461 8.80251 21.0461 7.0001C21.0461 5.19769 20.3301 3.4691 19.0556 2.19461C17.7811 0.920108 16.0525 0.204103 14.2501 0.204103ZM7.7501 12.7961C6.21291 12.7961 4.73867 12.1855 3.65171 11.0985C2.56475 10.0115 1.9541 8.5373 1.9541 7.0001C1.9541 5.46291 2.56475 3.98867 3.65171 2.90171C4.73867 1.81475 6.21291 1.2041 7.7501 1.2041C8.5421 1.2041 9.3251 1.3701 10.0481 1.6911C9.25292 2.32872 8.61113 3.13682 8.17012 4.05572C7.72912 4.97462 7.50016 5.98085 7.50016 7.0001C7.50016 8.01935 7.72912 9.02558 8.17012 9.94448C8.61113 10.8634 9.25292 11.6715 10.0481 12.3091C9.32444 12.6299 8.54168 12.7958 7.7501 12.7961ZM11.0001 11.7761C10.2282 11.2415 9.59752 10.5277 9.16209 9.6959C8.72666 8.86406 8.49951 7.93901 8.5001 7.0001C8.49934 6.06102 8.72642 5.13578 9.16186 4.30375C9.59729 3.47172 10.2281 2.75776 11.0001 2.2231C11.7718 2.75816 12.4023 3.4722 12.8378 4.30412C13.2733 5.13604 13.5008 6.06108 13.5008 7.0001C13.5008 7.93912 13.2733 8.86416 12.8378 9.69609C12.4023 10.528 11.7718 11.242 11.0001 11.7771V11.7761ZM14.2501 12.7961C13.4585 12.7958 12.6758 12.6299 11.9521 12.3091C12.7473 11.6715 13.3891 10.8634 13.8301 9.94448C14.2711 9.02558 14.5 8.01935 14.5 7.0001C14.5 5.98085 14.2711 4.97462 13.8301 4.05572C13.3891 3.13682 12.7473 2.32872 11.9521 1.6911C12.6758 1.37031 13.4585 1.20442 14.2501 1.2041C15.7873 1.2041 17.2615 1.81475 18.3485 2.90171C19.4355 3.98867 20.0461 5.46291 20.0461 7.0001C20.0461 8.5373 19.4355 10.0115 18.3485 11.0985C17.2615 12.1855 15.7873 12.7961 14.2501 12.7961Z" fill="black"/>
</svg>
