<svg width="21" height="8" viewBox="0 0 21 8" fill="none" xmlns="http://www.w3.org/2000/svg">
<path d="M15.539 1.18591C15.0742 1.01652 14.5828 0.931521 14.088 0.934912C12.488 0.934912 11.358 1.74091 11.35 2.89791C11.34 3.74791 12.153 4.22691 12.768 4.51091C13.399 4.80291 13.61 4.98691 13.608 5.24791C13.604 5.64491 13.104 5.82491 12.639 5.82491C12 5.82491 11.651 5.73591 11.114 5.51291L10.915 5.41991L10.688 6.75191C11.077 6.91391 11.778 7.05291 12.502 7.06491C14.203 7.06491 15.315 6.26391 15.328 5.03291C15.342 4.35391 14.902 3.84091 13.976 3.41691C13.413 3.14191 13.064 2.95791 13.064 2.67891C13.064 2.43191 13.363 2.16791 13.988 2.16791C14.404 2.15785 14.8174 2.23589 15.201 2.39691L15.351 2.46391L15.578 1.17691L15.539 1.18591ZM19.691 1.04291H18.441C18.052 1.04291 17.759 1.14991 17.589 1.53591L15.185 6.98191H16.886L17.226 6.08891L19.302 6.09091C19.351 6.29991 19.501 6.98191 19.501 6.98191H21.001L19.691 1.04291ZM9.04905 0.992912H10.67L9.65605 6.93491H8.03705L9.04905 0.990912V0.992912ZM4.93405 4.26791L5.10205 5.09291L6.68605 1.04291H8.40305L5.85205 6.97391H4.13905L2.73905 1.95191C2.71637 1.8691 2.66312 1.79798 2.59005 1.75291C2.08545 1.49225 1.55079 1.29444 0.998047 1.16391L1.02005 1.03891H3.62905C3.98305 1.05291 4.26805 1.16391 4.36305 1.54191L4.93305 4.27091V4.26791H4.93405ZM17.691 4.87391L18.337 3.21191C18.329 3.22991 18.47 2.86891 18.552 2.64591L18.663 3.15891L19.038 4.87291H17.69V4.87391H17.691Z" fill="black"/>
</svg>
